<svg width="68" height="31" viewBox="0 0 68 31" fill="none" xmlns="http://www.w3.org/2000/svg">
<path d="M5.144 30.6799C4.088 29.2719 0.279999 23.7999 0.279999 15.8319C0.279999 7.86389 4.088 2.39189 5.144 0.983887L7.32 2.32789C6.552 3.51189 3.096 8.69589 3.096 15.8319C3.096 22.9679 6.52 28.1519 7.32 29.3359L5.144 30.6799Z" fill="black"/>
<path d="M10.5137 4.59989H13.1057L25.7457 22.1359V4.59989H28.6257V26.9999H25.9697L13.3937 9.52789V26.9999H10.5137V4.59989Z" fill="black"/>
<path d="M31.8112 29.3359C32.6112 28.1519 36.0352 22.9679 36.0352 15.8319C36.0352 8.69589 32.5793 3.51189 31.8112 2.32789L33.9872 0.983887C35.0432 2.39189 38.8512 7.86389 38.8512 15.8319C38.8512 23.7999 35.0432 29.2719 33.9872 30.6799L31.8112 29.3359Z" fill="black"/>
<path d="M58.68 11.3199H63.32V7.86389H58.68L58.488 5.23989H63.32V2.99989H66.488V16.3759H63.32V13.9439H58.488L58.68 11.3199ZM57.848 9.65589C57.848 13.3679 54.52 16.0239 49.528 16.0239C44.536 16.0239 41.176 13.3679 41.176 9.65589C41.176 5.94389 44.536 3.28789 49.528 3.28789C54.52 3.28789 57.848 5.94389 57.848 9.65589ZM44.312 9.65589C44.312 11.9599 46.456 13.4639 49.528 13.4639C52.6 13.4639 54.712 11.9599 54.712 9.65589C54.712 7.35189 52.6 5.84789 49.528 5.84789C46.456 5.84789 44.312 7.35189 44.312 9.65589ZM46.68 27.4799H67.16V29.9759H43.544V22.7439H63.352V20.3759H43.48V17.8799H66.488V25.1119H46.68V27.4799Z" fill="black"/>
</svg>
