<svg width="375" height="375" viewBox="0 0 375 375" fill="none" xmlns="http://www.w3.org/2000/svg">
<rect width="375" height="375" fill="#603CFF"/>
<path d="M205.078 187.5C205.078 236.041 165.728 275.391 117.188 275.391C68.6468 275.391 29.2969 236.041 29.2969 187.5C29.2969 138.959 68.6468 99.6094 117.188 99.6094C165.728 99.6094 205.078 138.959 205.078 187.5Z" fill="#603CFF"/>
<path fill-rule="evenodd" clip-rule="evenodd" d="M117.188 257.812C156.02 257.812 187.5 226.333 187.5 187.5C187.5 148.667 156.02 117.188 117.188 117.188C78.355 117.188 46.875 148.667 46.875 187.5C46.875 226.333 78.355 257.812 117.188 257.812ZM117.188 275.391C165.728 275.391 205.078 236.041 205.078 187.5C205.078 138.959 165.728 99.6094 117.188 99.6094C68.6468 99.6094 29.2969 138.959 29.2969 187.5C29.2969 236.041 68.6468 275.391 117.188 275.391Z" fill="black"/>
<path d="M99.6094 187.5C99.6094 197.208 91.7394 205.078 82.0312 205.078C72.3231 205.078 64.4531 197.208 64.4531 187.5C64.4531 177.792 72.3231 169.922 82.0312 169.922C91.7394 169.922 99.6094 177.792 99.6094 187.5Z" fill="#603CFF"/>
<path fill-rule="evenodd" clip-rule="evenodd" d="M82.0312 205.078C91.7394 205.078 99.6094 197.208 99.6094 187.5C99.6094 177.792 91.7394 169.922 82.0312 169.922C72.3231 169.922 64.4531 177.792 64.4531 187.5C64.4531 197.208 72.3231 205.078 82.0312 205.078Z" fill="black"/>
<path d="M345.703 187.5C345.703 236.041 306.353 275.391 257.812 275.391C209.272 275.391 169.922 236.041 169.922 187.5C169.922 138.959 209.272 99.6094 257.812 99.6094C306.353 99.6094 345.703 138.959 345.703 187.5Z" fill="#603CFF"/>
<path fill-rule="evenodd" clip-rule="evenodd" d="M257.812 257.812C296.645 257.812 328.125 226.333 328.125 187.5C328.125 148.667 296.645 117.188 257.812 117.188C218.98 117.188 187.5 148.667 187.5 187.5C187.5 226.333 218.98 257.812 257.812 257.812ZM257.812 275.391C306.353 275.391 345.703 236.041 345.703 187.5C345.703 138.959 306.353 99.6094 257.812 99.6094C209.272 99.6094 169.922 138.959 169.922 187.5C169.922 236.041 209.272 275.391 257.812 275.391Z" fill="black"/>
<path d="M240.234 187.5C240.234 197.208 232.364 205.078 222.656 205.078C212.948 205.078 205.078 197.208 205.078 187.5C205.078 177.792 212.948 169.922 222.656 169.922C232.364 169.922 240.234 177.792 240.234 187.5Z" fill="#603CFF"/>
<path fill-rule="evenodd" clip-rule="evenodd" d="M222.656 205.078C232.364 205.078 240.234 197.208 240.234 187.5C240.234 177.792 232.364 169.922 222.656 169.922C212.948 169.922 205.078 177.792 205.078 187.5C205.078 197.208 212.948 205.078 222.656 205.078Z" fill="black"/>
</svg>
